<svg width="68" height="75" viewBox="0 0 68 75" fill="none" xmlns="http://www.w3.org/2000/svg">
<path d="M60.75 0H6.75C3.0225 0 0 3.0225 0 6.75V68.25C0 71.9775 3.0225 75 6.75 75H60.75C64.4775 75 67.5 71.9775 67.5 68.25V6.75C67.5 3.0225 64.4775 0 60.75 0ZM16.875 63.75V48.75L25.3125 56.25L16.875 63.75ZM43.125 63.75V41.3531C43.0884 39.6028 42.2456 37.5 38.4375 37.5C30.8119 37.5 22.2581 41.3353 22.1728 41.3737L16.875 43.7738V11.25H24.375V32.5416C28.1194 31.3228 33.3534 30 38.4375 30C43.0734 30 45.8484 31.8225 47.3597 33.3516C50.5856 36.6141 50.6297 40.77 50.6252 41.25V63.75H43.125ZM45 23.4375H37.5C40.4475 19.5703 42.2981 15.5006 43.125 11.25H50.625C50.1188 15.51 48.3919 19.5938 45 23.4375Z" fill="white"/>
</svg>
