<?xml version="1.0" encoding="UTF-8" standalone="no"?><!DOCTYPE svg PUBLIC "-//W3C//DTD SVG 1.1//EN" "http://www.w3.org/Graphics/SVG/1.1/DTD/svg11.dtd"><svg width="100%" height="100%" viewBox="0 0 172 172" version="1.1" xmlns="http://www.w3.org/2000/svg" xmlns:xlink="http://www.w3.org/1999/xlink" xml:space="preserve" xmlns:serif="http://www.serif.com/" style="fill-rule:evenodd;clip-rule:evenodd;stroke-linejoin:round;stroke-miterlimit:2;"><path d="M66.428,113.532c-0.093,0.056 -0.093,0.111 -0,0.167c1,0.407 1.76,1.01 2.279,1.807c0.519,0.797 0.779,1.76 0.779,2.891c-0,1.668 -0.533,2.965 -1.599,3.892c-1.066,0.927 -2.469,1.39 -4.212,1.39l-6.727,-0c-0.185,-0 -0.278,-0.093 -0.278,-0.278l-0,-18.904c-0,-0.185 0.093,-0.278 0.278,-0.278l6.533,-0c1.798,-0 3.211,0.445 4.239,1.334c1.029,0.89 1.543,2.141 1.543,3.753c0,1.02 -0.245,1.886 -0.736,2.6c-0.492,0.713 -1.191,1.255 -2.099,1.626Zm-7.673,-7.589c-0.074,-0 -0.111,0.037 -0.111,0.111l-0,6.672c-0,0.074 0.037,0.111 0.111,0.111l4.726,-0c1.167,-0 2.099,-0.306 2.794,-0.917c0.695,-0.612 1.042,-1.428 1.042,-2.447c0,-1.075 -0.347,-1.932 -1.042,-2.571c-0.695,-0.64 -1.627,-0.959 -2.794,-0.959l-4.726,-0Zm4.92,15.985c1.168,-0 2.099,-0.334 2.794,-1.001c0.695,-0.667 1.043,-1.566 1.043,-2.697c-0,-1.13 -0.357,-2.034 -1.07,-2.71c-0.714,-0.677 -1.673,-1.015 -2.878,-1.015l-4.809,-0c-0.074,-0 -0.111,0.037 -0.111,0.111l-0,7.2c-0,0.074 0.037,0.112 0.111,0.112l4.92,-0Z" style="fill:#333132;fill-rule:nonzero;"/><path d="M74.768,107.055c-0.464,-0 -0.839,-0.149 -1.126,-0.445c-0.288,-0.297 -0.431,-0.667 -0.431,-1.112c-0,-0.464 0.143,-0.839 0.431,-1.126c0.287,-0.287 0.662,-0.431 1.126,-0.431c0.444,-0 0.815,0.144 1.112,0.431c0.296,0.287 0.444,0.662 0.444,1.126c0,0.445 -0.148,0.815 -0.444,1.112c-0.297,0.296 -0.668,0.445 -1.112,0.445Zm-3.976,22.406c-0.185,0 -0.278,-0.092 -0.278,-0.278l0,-1.139c0,-0.186 0.093,-0.278 0.278,-0.278c1.983,-0.019 2.975,-0.973 2.975,-2.864l-0,-15.012c-0,-0.185 0.093,-0.278 0.278,-0.278l1.418,0c0.185,0 0.278,0.093 0.278,0.278l-0,15.012c-0,1.575 -0.39,2.725 -1.168,3.447c-0.778,0.723 -2.039,1.094 -3.781,1.112Z" style="fill:#333132;fill-rule:nonzero;"/><path d="M85.888,123.901c-1.335,0 -2.484,-0.343 -3.448,-1.028c-0.963,-0.686 -1.63,-1.631 -2.001,-2.836c-0.26,-0.852 -0.389,-1.992 -0.389,-3.419c-0,-1.427 0.129,-2.558 0.389,-3.392c0.352,-1.186 1.01,-2.122 1.974,-2.808c0.963,-0.685 2.131,-1.028 3.502,-1.028c1.316,-0 2.451,0.343 3.406,1.028c0.954,0.686 1.608,1.613 1.96,2.78c0.259,0.797 0.389,1.937 0.389,3.42c0,1.501 -0.13,2.641 -0.389,3.419c-0.352,1.205 -1.006,2.15 -1.96,2.836c-0.955,0.685 -2.099,1.028 -3.433,1.028Zm-0,-1.723c0.889,-0 1.649,-0.246 2.279,-0.737c0.63,-0.491 1.057,-1.154 1.279,-1.988c0.167,-0.667 0.25,-1.603 0.25,-2.807c0,-1.224 -0.074,-2.16 -0.222,-2.808c-0.223,-0.834 -0.653,-1.497 -1.293,-1.988c-0.639,-0.491 -1.413,-0.737 -2.321,-0.737c-0.908,0 -1.677,0.246 -2.308,0.737c-0.63,0.491 -1.056,1.154 -1.278,1.988c-0.149,0.648 -0.223,1.584 -0.223,2.808c0,1.223 0.074,2.159 0.223,2.807c0.204,0.834 0.625,1.497 1.265,1.988c0.639,0.491 1.422,0.737 2.349,0.737Zm2.224,-15.207c-0.464,0 -0.839,-0.148 -1.126,-0.445c-0.288,-0.296 -0.431,-0.667 -0.431,-1.112c-0,-0.463 0.143,-0.838 0.431,-1.126c0.287,-0.287 0.662,-0.43 1.126,-0.43c0.444,-0 0.815,0.143 1.112,0.43c0.296,0.288 0.444,0.663 0.444,1.126c0,0.445 -0.148,0.816 -0.444,1.112c-0.297,0.297 -0.668,0.445 -1.112,0.445Zm-4.754,0c-0.463,0 -0.839,-0.148 -1.126,-0.445c-0.287,-0.296 -0.431,-0.667 -0.431,-1.112c0,-0.463 0.144,-0.838 0.431,-1.126c0.287,-0.287 0.663,-0.43 1.126,-0.43c0.445,-0 0.815,0.143 1.112,0.43c0.296,0.288 0.445,0.663 0.445,1.126c-0,0.445 -0.149,0.816 -0.445,1.112c-0.297,0.297 -0.667,0.445 -1.112,0.445Z" style="fill:#333132;fill-rule:nonzero;"/><path d="M101.094,109.473c0.612,0 1.14,0.121 1.585,0.362c0.148,0.074 0.204,0.194 0.167,0.361l-0.306,1.362c-0.056,0.185 -0.176,0.241 -0.362,0.167c-0.315,-0.13 -0.676,-0.195 -1.084,-0.195l-0.361,0.028c-0.964,0.037 -1.761,0.394 -2.391,1.07c-0.63,0.677 -0.945,1.534 -0.945,2.572l-0,8.201c-0,0.185 -0.093,0.278 -0.278,0.278l-1.418,-0c-0.185,-0 -0.278,-0.093 -0.278,-0.278l0,-13.511c0,-0.185 0.093,-0.278 0.278,-0.278l1.418,0c0.185,0 0.278,0.093 0.278,0.278l-0,1.696c-0,0.056 0.014,0.088 0.042,0.097c0.027,0.01 0.051,-0.004 0.069,-0.041c0.389,-0.686 0.885,-1.219 1.487,-1.599c0.603,-0.38 1.302,-0.57 2.099,-0.57Z" style="fill:#333132;fill-rule:nonzero;"/><path d="M111.38,109.418c1.483,-0 2.664,0.435 3.545,1.306c0.88,0.871 1.32,2.039 1.32,3.503l0,9.174c0,0.185 -0.092,0.278 -0.278,0.278l-1.418,-0c-0.185,-0 -0.278,-0.093 -0.278,-0.278l0,-8.785c0,-1.019 -0.31,-1.853 -0.931,-2.502c-0.621,-0.649 -1.422,-0.973 -2.405,-0.973c-1.019,0 -1.844,0.315 -2.474,0.945c-0.63,0.63 -0.945,1.455 -0.945,2.475l0,8.84c0,0.185 -0.093,0.278 -0.278,0.278l-1.418,-0c-0.185,-0 -0.278,-0.093 -0.278,-0.278l0,-13.511c0,-0.185 0.093,-0.278 0.278,-0.278l1.418,0c0.185,0 0.278,0.093 0.278,0.278l0,1.196c0,0.037 0.014,0.064 0.042,0.083c0.028,0.018 0.051,0.009 0.069,-0.028c0.816,-1.149 2.067,-1.723 3.753,-1.723Z" style="fill:#333132;fill-rule:nonzero;"/><path d="M53.798,137.308c-0.094,0.056 -0.094,0.112 -0,0.168c1.008,0.411 1.773,1.018 2.296,1.82c0.522,0.803 0.784,1.774 0.784,2.912c-0,1.68 -0.537,2.987 -1.61,3.92c-1.074,0.934 -2.488,1.4 -4.242,1.4l-6.776,0c-0.187,0 -0.28,-0.093 -0.28,-0.28l-0,-19.04c-0,-0.186 0.093,-0.28 0.28,-0.28l6.58,0c1.81,0 3.234,0.448 4.27,1.344c1.036,0.896 1.554,2.156 1.554,3.78c-0,1.027 -0.248,1.9 -0.742,2.618c-0.495,0.719 -1.2,1.265 -2.114,1.638Zm-7.728,-7.644c-0.075,0 -0.112,0.038 -0.112,0.112l-0,6.72c-0,0.075 0.037,0.112 0.112,0.112l4.76,0c1.176,0 2.114,-0.308 2.814,-0.924c0.7,-0.616 1.05,-1.437 1.05,-2.464c-0,-1.082 -0.35,-1.946 -1.05,-2.59c-0.7,-0.644 -1.638,-0.966 -2.814,-0.966l-4.76,0Zm4.956,16.1c1.176,0 2.114,-0.336 2.814,-1.008c0.7,-0.672 1.05,-1.577 1.05,-2.716c-0,-1.138 -0.36,-2.048 -1.078,-2.73c-0.719,-0.681 -1.685,-1.022 -2.898,-1.022l-4.844,0c-0.075,0 -0.112,0.038 -0.112,0.112l-0,7.252c-0,0.075 0.037,0.112 0.112,0.112l4.956,0Z" style="fill:#333132;fill-rule:nonzero;"/><path d="M66.846,133.22c0.616,0 1.148,0.122 1.596,0.364c0.149,0.075 0.205,0.196 0.168,0.364l-0.308,1.372c-0.056,0.187 -0.178,0.243 -0.364,0.168c-0.318,-0.13 -0.682,-0.196 -1.092,-0.196l-0.364,0.028c-0.971,0.038 -1.774,0.397 -2.408,1.078c-0.635,0.682 -0.952,1.545 -0.952,2.59l-0,8.26c-0,0.187 -0.094,0.28 -0.28,0.28l-1.428,0c-0.187,0 -0.28,-0.093 -0.28,-0.28l-0,-13.608c-0,-0.186 0.093,-0.28 0.28,-0.28l1.428,0c0.186,0 0.28,0.094 0.28,0.28l-0,1.708c-0,0.056 0.014,0.089 0.042,0.098c0.028,0.01 0.051,-0.004 0.07,-0.042c0.392,-0.69 0.891,-1.227 1.498,-1.61c0.606,-0.382 1.311,-0.574 2.114,-0.574Z" style="fill:#333132;fill-rule:nonzero;"/><path d="M82.05,138.064c0.074,0.523 0.112,1.176 0.112,1.96l-0,0.896c-0,0.187 -0.094,0.28 -0.28,0.28l-9.044,0c-0.075,0 -0.112,0.038 -0.112,0.112c0.037,1.027 0.093,1.69 0.168,1.988c0.205,0.84 0.644,1.503 1.316,1.988c0.672,0.486 1.53,0.728 2.576,0.728c0.784,0 1.474,-0.177 2.072,-0.532c0.597,-0.354 1.064,-0.858 1.4,-1.512c0.112,-0.168 0.242,-0.205 0.392,-0.112l1.092,0.644c0.149,0.094 0.186,0.224 0.112,0.392c-0.467,0.896 -1.167,1.601 -2.1,2.114c-0.934,0.514 -2.007,0.77 -3.22,0.77c-1.326,-0.018 -2.436,-0.336 -3.332,-0.952c-0.896,-0.616 -1.54,-1.474 -1.932,-2.576c-0.336,-0.896 -0.504,-2.184 -0.504,-3.864c-0,-0.784 0.014,-1.423 0.042,-1.918c0.028,-0.494 0.098,-0.938 0.21,-1.33c0.317,-1.213 0.956,-2.184 1.918,-2.912c0.961,-0.728 2.123,-1.092 3.486,-1.092c1.698,0 3.005,0.43 3.92,1.288c0.914,0.859 1.484,2.072 1.708,3.64Zm-5.628,-3.192c-0.915,0 -1.676,0.238 -2.282,0.714c-0.607,0.476 -1.004,1.116 -1.19,1.918c-0.112,0.392 -0.187,1.027 -0.224,1.904c-0,0.075 0.037,0.112 0.112,0.112l7.252,0c0.074,0 0.112,-0.037 0.112,-0.112c-0.038,-0.84 -0.094,-1.437 -0.168,-1.792c-0.206,-0.84 -0.621,-1.507 -1.246,-2.002c-0.626,-0.494 -1.414,-0.742 -2.366,-0.742Z" style="fill:#333132;fill-rule:nonzero;"/><path d="M86.39,147.528c-0.187,0 -0.28,-0.093 -0.28,-0.28l-0,-14c0.018,-1.736 0.532,-3.098 1.54,-4.088c1.008,-0.989 2.389,-1.484 4.144,-1.484c1.717,0 3.094,0.472 4.13,1.414c1.036,0.943 1.554,2.217 1.554,3.822c-0,0.99 -0.21,1.834 -0.63,2.534c-0.42,0.7 -1.032,1.228 -1.834,1.582c-0.038,0.019 -0.056,0.038 -0.056,0.056c-0,0.019 0.018,0.038 0.056,0.056c0.84,0.355 1.498,0.962 1.974,1.82c0.476,0.859 0.714,1.876 0.714,3.052c-0,1.736 -0.537,3.09 -1.61,4.06c-1.074,0.971 -2.59,1.456 -4.55,1.456l-1.736,0c-0.187,0 -0.28,-0.093 -0.28,-0.28l-0,-1.148c-0,-0.186 0.093,-0.28 0.28,-0.28l1.904,0c1.25,0 2.23,-0.345 2.94,-1.036c0.709,-0.69 1.064,-1.67 1.064,-2.94c-0,-1.232 -0.322,-2.193 -0.966,-2.884c-0.644,-0.69 -1.526,-1.045 -2.646,-1.064l-1.652,0c-0.187,0 -0.28,-0.093 -0.28,-0.28l-0,-1.036c-0,-0.186 0.093,-0.28 0.28,-0.28l1.624,0c1.082,0 1.922,-0.289 2.52,-0.868c0.597,-0.578 0.896,-1.381 0.896,-2.408c-0,-1.12 -0.318,-2.002 -0.952,-2.646c-0.635,-0.644 -1.531,-0.966 -2.688,-0.966c-1.102,0 -1.998,0.327 -2.688,0.98c-0.691,0.654 -1.046,1.559 -1.064,2.716l-0,14.14c-0,0.187 -0.094,0.28 -0.28,0.28l-1.428,0Z" style="fill:#333132;fill-rule:nonzero;"/><path d="M101.986,147.528c-0.187,0 -0.28,-0.093 -0.28,-0.28l-0,-19.04c-0,-0.186 0.093,-0.28 0.28,-0.28l1.428,0c0.186,0 0.28,0.094 0.28,0.28l-0,19.04c-0,0.187 -0.094,0.28 -0.28,0.28l-1.428,0Z" style="fill:#333132;fill-rule:nonzero;"/><path d="M119.01,138.064c0.074,0.523 0.112,1.176 0.112,1.96l-0,0.896c-0,0.187 -0.094,0.28 -0.28,0.28l-9.044,0c-0.075,0 -0.112,0.038 -0.112,0.112c0.037,1.027 0.093,1.69 0.168,1.988c0.205,0.84 0.644,1.503 1.316,1.988c0.672,0.486 1.53,0.728 2.576,0.728c0.784,0 1.474,-0.177 2.072,-0.532c0.597,-0.354 1.064,-0.858 1.4,-1.512c0.112,-0.168 0.242,-0.205 0.392,-0.112l1.092,0.644c0.149,0.094 0.186,0.224 0.112,0.392c-0.467,0.896 -1.167,1.601 -2.1,2.114c-0.934,0.514 -2.007,0.77 -3.22,0.77c-1.326,-0.018 -2.436,-0.336 -3.332,-0.952c-0.896,-0.616 -1.54,-1.474 -1.932,-2.576c-0.336,-0.896 -0.504,-2.184 -0.504,-3.864c-0,-0.784 0.014,-1.423 0.042,-1.918c0.028,-0.494 0.098,-0.938 0.21,-1.33c0.317,-1.213 0.956,-2.184 1.918,-2.912c0.961,-0.728 2.123,-1.092 3.486,-1.092c1.698,0 3.005,0.43 3.92,1.288c0.914,0.859 1.484,2.072 1.708,3.64Zm-5.628,-3.192c-0.915,0 -1.676,0.238 -2.282,0.714c-0.607,0.476 -1.004,1.116 -1.19,1.918c-0.112,0.392 -0.187,1.027 -0.224,1.904c-0,0.075 0.037,0.112 0.112,0.112l7.252,0c0.074,0 0.112,-0.037 0.112,-0.112c-0.038,-0.84 -0.094,-1.437 -0.168,-1.792c-0.206,-0.84 -0.621,-1.507 -1.246,-2.002c-0.626,-0.494 -1.414,-0.742 -2.366,-0.742Z" style="fill:#333132;fill-rule:nonzero;"/><path d="M128.782,133.22c0.616,0 1.148,0.122 1.596,0.364c0.149,0.075 0.205,0.196 0.168,0.364l-0.308,1.372c-0.056,0.187 -0.178,0.243 -0.364,0.168c-0.318,-0.13 -0.682,-0.196 -1.092,-0.196l-0.364,0.028c-0.971,0.038 -1.774,0.397 -2.408,1.078c-0.635,0.682 -0.952,1.545 -0.952,2.59l-0,8.26c-0,0.187 -0.094,0.28 -0.28,0.28l-1.428,0c-0.187,0 -0.28,-0.093 -0.28,-0.28l-0,-13.608c-0,-0.186 0.093,-0.28 0.28,-0.28l1.428,0c0.186,0 0.28,0.094 0.28,0.28l-0,1.708c-0,0.056 0.014,0.089 0.042,0.098c0.028,0.01 0.051,-0.004 0.07,-0.042c0.392,-0.69 0.891,-1.227 1.498,-1.61c0.606,-0.382 1.311,-0.574 2.114,-0.574Z" style="fill:#333132;fill-rule:nonzero;"/><path d="M72.801,65.842l0,2.649c0,4.331 -3.517,7.848 -7.849,7.848c-4.331,0 -7.848,-3.517 -7.848,-7.848c-0,-4.332 3.517,-7.849 7.848,-7.849l2.649,-0l0,-5.064l-2.649,-0c-4.331,-0 -7.848,-3.517 -7.848,-7.849c-0,-4.332 3.517,-7.849 7.848,-7.849c4.332,0 7.849,3.517 7.849,7.849l0,2.649l26.511,-0l3.843,-3.843c-0.11,-0.42 -0.168,-0.861 -0.168,-1.315c-0,-2.87 2.33,-5.2 5.2,-5.2c2.87,-0 5.2,2.33 5.2,5.2c-0,2.87 -2.33,5.2 -5.2,5.2c-0.477,-0 -0.939,-0.065 -1.378,-0.185l-4.581,4.581c-0.548,0.548 -1.195,0.762 -1.998,0.762l-27.429,-0l0,5.064l27.429,-0c0.798,-0 1.45,0.213 1.998,0.761l4.581,4.582c0.439,-0.121 0.901,-0.185 1.378,-0.185c2.87,-0 5.2,2.33 5.2,5.2c-0,2.87 -2.33,5.2 -5.2,5.2c-2.87,-0 -5.2,-2.33 -5.2,-5.2c-0,-0.455 0.058,-0.896 0.168,-1.316l-3.843,-3.842l-26.511,-0Zm-5.2,2.649l0,-2.649l-2.649,-0c-1.462,-0 -2.648,1.187 -2.648,2.649c-0,1.461 1.186,2.648 2.648,2.648c1.462,0 2.649,-1.187 2.649,-2.648Zm0,-20.762c0,-1.462 -1.187,-2.649 -2.649,-2.649c-1.462,0 -2.648,1.187 -2.648,2.649c-0,1.462 1.186,2.649 2.648,2.649l2.649,-0l0,-2.649Z" style="fill:url(#_Linear1);"/><path d="M41.622,45.318c-0,-11.189 7.533,-20.985 18.722,-20.985c0.12,-0 23.118,-0.004 23.118,-0.004l0.032,21.041l-6.453,-0c-0.003,-0.02 -0.007,-0.04 -0.01,-0.06l-0.049,0c-1.124,-5.614 -6.086,-9.85 -12.03,-9.85c-6.728,0 -12.198,5.428 -12.268,12.14c0.046,4.403 2.415,8.253 5.939,10.381c0.093,0.057 0.249,0.129 0.249,0.129l-0.249,0.128c-3.524,2.129 -5.893,5.979 -5.939,10.381c0.07,6.712 5.54,12.14 12.268,12.14c5.944,0 10.906,-4.235 12.03,-9.85l0.01,-0.059l6.502,-0c0,-0 -0.032,21.04 -0.032,21.04c-0,-0 -15.412,-0.004 -23.118,-0.004c-10.756,0 -18.722,-9.369 -18.722,-20.95c-0,-4.776 1.607,-9.301 4.31,-12.826c-2.703,-3.525 -4.31,-7.962 -4.31,-12.792Z" style="fill:#763eb5;"/><path d="M97.269,45.37l-8.568,-0l0.033,-21.041c-0,0 22.997,0.004 23.117,0.004c10.848,-0 18.723,9.341 18.723,20.985c-0,4.803 -1.607,9.267 -4.311,12.792c2.704,3.525 4.311,8.01 4.311,12.791c-0,11.678 -7.866,20.985 -18.723,20.985c-1.156,0 -23.117,0.004 -23.117,0.004l-0.033,-21.04c0,-0 8.568,-0 8.568,-0l0.529,0.573c0,4.694 4.123,9.977 10.389,9.977c5.739,-0 10.399,-4.66 10.399,-10.4c0,-5.536 -4.333,-10.067 -9.79,-10.383l-2.499,-2.507l2.499,-2.508c5.457,-0.316 9.79,-4.847 9.79,-10.382c0,-5.74 -4.66,-10.4 -10.399,-10.4c-5.506,-0 -10.123,4.298 -10.389,9.976l-0.529,0.574Z" style="fill:#5a8be7;"/><rect x="0" y="0" width="171.84" height="171.84" style="fill:none;"/><defs><linearGradient id="_Linear1" x1="0" y1="0" x2="1" y2="0" gradientUnits="userSpaceOnUse" gradientTransform="matrix(56.2829,1.37853e-14,-8.92989e-15,36.459,57.1036,58.1097)"><stop offset="0" style="stop-color:#5a8be7;stop-opacity:1"/><stop offset="1" style="stop-color:#763eb5;stop-opacity:1"/></linearGradient></defs></svg>