<?xml version="1.0" encoding="UTF-8" standalone="no"?><!DOCTYPE svg PUBLIC "-//W3C//DTD SVG 1.1//EN" "http://www.w3.org/Graphics/SVG/1.1/DTD/svg11.dtd"><svg width="100%" height="100%" viewBox="0 0 105 105" version="1.1" xmlns="http://www.w3.org/2000/svg" xmlns:xlink="http://www.w3.org/1999/xlink" xml:space="preserve" xmlns:serif="http://www.serif.com/" style="fill-rule:evenodd;clip-rule:evenodd;stroke-linejoin:round;stroke-miterlimit:2;"><rect x="0" y="0" width="104.4" height="104.4" style="fill:none;"/><g><path d="M36.513,60.572c-0.414,0 -0.75,0.336 -0.75,0.75l-0,3.125c-0,4.697 -3.813,8.51 -8.51,8.51c-4.697,-0 -8.51,-3.813 -8.51,-8.51c0,-4.697 3.813,-8.51 8.51,-8.51l3.125,0c0.414,0 0.75,-0.335 0.75,-0.75l0,-5.974c0,-0.415 -0.336,-0.75 -0.75,-0.75l-3.125,-0c-4.697,-0 -8.51,-3.813 -8.51,-8.51c0,-4.697 3.813,-8.51 8.51,-8.51c4.697,0 8.51,3.813 8.51,8.51l-0,3.125c-0,0.414 0.336,0.75 0.75,0.75l31.278,-0c0.199,-0 0.389,-0.079 0.53,-0.22l4.533,-4.533c0.188,-0.188 0.263,-0.462 0.196,-0.72c-0.114,-0.435 -0.174,-0.892 -0.174,-1.362c-0,-2.972 2.412,-5.385 5.384,-5.385c2.972,-0 5.385,2.413 5.385,5.385c0,2.972 -2.413,5.384 -5.385,5.384c-0.494,0 -0.972,-0.066 -1.427,-0.191c-0.259,-0.071 -0.538,0.002 -0.728,0.193l-5.405,5.405c-0.5,0.499 -1.095,0.679 -1.827,0.679l-32.36,-0c-0.414,-0 -0.75,0.335 -0.75,0.75l-0,5.974c-0,0.415 0.336,0.75 0.75,0.75l32.36,0c0.727,0 1.327,0.18 1.827,0.679l5.405,5.405c0.19,0.191 0.469,0.264 0.728,0.193c0.455,-0.125 0.933,-0.191 1.427,-0.191c2.972,-0 5.385,2.413 5.385,5.384c0,2.972 -2.413,5.385 -5.385,5.385c-2.972,0 -5.384,-2.413 -5.384,-5.385c-0,-0.47 0.06,-0.927 0.174,-1.362c0.067,-0.258 -0.008,-0.532 -0.196,-0.72l-4.533,-4.533c-0.141,-0.141 -0.331,-0.22 -0.53,-0.22l-31.278,0Zm-5.385,-20.619c0,-2.139 -1.736,-3.875 -3.875,-3.875c-2.139,-0 -3.875,1.736 -3.875,3.875c0,2.139 1.736,3.875 3.875,3.875l3.125,-0c0.414,-0 0.75,-0.336 0.75,-0.75l0,-3.125Zm0,24.494l0,-3.125c0,-0.414 -0.336,-0.75 -0.75,-0.75l-3.125,0c-2.139,0 -3.875,1.737 -3.875,3.875c0,2.139 1.736,3.875 3.875,3.875c2.139,0 3.875,-1.736 3.875,-3.875Z" style="fill:url(#_Linear1);"/><path d="M48.377,67.98l-0.036,23.323c-3.514,-0 -18.532,-0.004 -26.524,-0.004c-12.285,0 -21.339,-10.74 -21.339,-23.966c-0,-5.466 1.837,-10.643 4.93,-14.677l0.35,-0.456l-0.35,-0.456c-3.093,-4.033 -4.93,-9.11 -4.93,-14.635c-0,-12.78 8.558,-24.008 21.339,-24.008c0.127,-0 22.153,-0.004 26.524,-0.004l0.036,23.323l-6.313,-0c-1.595,-6.701 -7.625,-11.692 -14.811,-11.692c-8.349,0 -15.138,6.736 -15.224,15.065l0,0.008c0.053,5.147 2.659,9.681 6.609,12.399c-3.95,2.718 -6.556,7.251 -6.609,12.391l0,0.008c0.086,8.337 6.875,15.073 15.224,15.073c7.186,-0 13.216,-4.991 14.811,-11.692l6.313,0Z" style="fill:#763eb5;"/><path d="M56.023,36.42l0.036,-23.323c4.371,0 26.397,0.004 26.524,0.004c12.391,-0 21.339,10.708 21.339,24.008c0,5.494 -1.837,10.602 -4.93,14.635l-0.35,0.456l0.35,0.456c3.093,4.033 4.93,9.165 4.93,14.635c0,13.337 -8.938,24.008 -21.339,24.008c-1.225,0 -22.263,0.004 -26.524,0.004l-0.036,-23.323l9.028,0l0.208,0.225c0.17,5.807 5.28,12.222 13.001,12.222c7.186,0 13.02,-5.834 13.02,-13.02c-0,-6.831 -5.274,-12.441 -11.969,-12.977c0,-0 -2.221,-2.23 -2.221,-2.23l2.221,-2.23c6.695,-0.536 11.969,-6.146 11.969,-12.977c-0,-7.186 -5.834,-13.02 -13.02,-13.02c-6.801,-0 -12.522,5.239 -12.989,12.209c-0,-0 -0.22,0.238 -0.22,0.238l-9.028,-0Z" style="fill:#5a8be7;"/></g><defs><linearGradient id="_Linear1" x1="0" y1="0" x2="1" y2="0" gradientUnits="userSpaceOnUse" gradientTransform="matrix(66.4019,1.62638e-14,-1.05354e-14,43.0139,17.9932,52.2)"><stop offset="0" style="stop-color:#f4e862;stop-opacity:1"/><stop offset="1" style="stop-color:#763eb5;stop-opacity:1"/></linearGradient></defs></svg>