<?xml version="1.0" encoding="UTF-8" standalone="no"?><!DOCTYPE svg PUBLIC "-//W3C//DTD SVG 1.1//EN" "http://www.w3.org/Graphics/SVG/1.1/DTD/svg11.dtd"><svg width="100%" height="100%" viewBox="0 0 172 172" version="1.1" xmlns="http://www.w3.org/2000/svg" xmlns:xlink="http://www.w3.org/1999/xlink" xml:space="preserve" xmlns:serif="http://www.serif.com/" style="fill-rule:evenodd;clip-rule:evenodd;stroke-linejoin:round;stroke-miterlimit:2;"><rect id="Artboard" x="-793.92" y="-1112.4" width="1766.94" height="1612.46" style="fill:none;"/><g id="kleines-B-im-großen-B" serif:id="kleines B im großen B"></g><g><path d="M223.92,-33.6l0,242.16l-260.4,0l-0,-242.16l260.4,-0Zm-8.022,8.022l-244.356,-0l-0,226.116l244.356,0l0,-226.116Z"/><rect x="-0" y="0" width="171.84" height="171.84" style="fill:none;"/></g><g><path d="M66.08,113.185c-0.093,0.055 -0.093,0.111 -0,0.166c1,0.408 1.76,1.01 2.279,1.807c0.519,0.797 0.779,1.761 0.779,2.892c-0,1.668 -0.533,2.965 -1.599,3.892c-1.066,0.926 -2.469,1.39 -4.212,1.39l-6.727,-0c-0.185,-0 -0.278,-0.093 -0.278,-0.278l-0,-18.904c-0,-0.186 0.093,-0.278 0.278,-0.278l6.533,-0c1.798,-0 3.211,0.444 4.239,1.334c1.029,0.89 1.543,2.141 1.543,3.753c0,1.019 -0.245,1.886 -0.736,2.599c-0.492,0.714 -1.191,1.256 -2.099,1.627Zm-7.673,-7.59c-0.074,0 -0.111,0.037 -0.111,0.111l-0,6.672c-0,0.075 0.037,0.112 0.111,0.112l4.726,-0c1.167,-0 2.099,-0.306 2.794,-0.918c0.695,-0.611 1.042,-1.427 1.042,-2.446c0,-1.075 -0.347,-1.932 -1.042,-2.572c-0.695,-0.639 -1.627,-0.959 -2.794,-0.959l-4.726,0Zm4.92,15.985c1.168,0 2.099,-0.333 2.794,-1.001c0.695,-0.667 1.043,-1.566 1.043,-2.696c-0,-1.131 -0.357,-2.034 -1.07,-2.711c-0.714,-0.676 -1.673,-1.014 -2.878,-1.014l-4.809,-0c-0.074,-0 -0.111,0.037 -0.111,0.111l-0,7.2c-0,0.074 0.037,0.111 0.111,0.111l4.92,0Z" style="fill:#fff;fill-rule:nonzero;"/><path d="M74.42,106.707c-0.464,0 -0.839,-0.148 -1.126,-0.445c-0.288,-0.296 -0.431,-0.667 -0.431,-1.112c-0,-0.463 0.143,-0.838 0.431,-1.125c0.287,-0.288 0.662,-0.431 1.126,-0.431c0.444,-0 0.815,0.143 1.112,0.431c0.296,0.287 0.444,0.662 0.444,1.125c0,0.445 -0.148,0.816 -0.444,1.112c-0.297,0.297 -0.668,0.445 -1.112,0.445Zm-3.976,22.407c-0.185,0 -0.278,-0.093 -0.278,-0.278l0,-1.14c0,-0.185 0.093,-0.278 0.278,-0.278c1.983,-0.018 2.975,-0.973 2.975,-2.863l-0,-15.012c-0,-0.186 0.093,-0.278 0.278,-0.278l1.418,-0c0.185,-0 0.278,0.092 0.278,0.278l-0,15.012c-0,1.575 -0.39,2.724 -1.168,3.447c-0.778,0.723 -2.039,1.093 -3.781,1.112Z" style="fill:#fff;fill-rule:nonzero;"/><path d="M85.54,123.554c-1.335,0 -2.484,-0.343 -3.448,-1.029c-0.963,-0.685 -1.63,-1.631 -2.001,-2.835c-0.26,-0.853 -0.389,-1.993 -0.389,-3.42c-0,-1.427 0.129,-2.557 0.389,-3.391c0.352,-1.186 1.01,-2.122 1.974,-2.808c0.963,-0.686 2.131,-1.029 3.502,-1.029c1.316,0 2.451,0.343 3.406,1.029c0.954,0.686 1.608,1.612 1.96,2.78c0.259,0.797 0.389,1.937 0.389,3.419c0,1.502 -0.13,2.641 -0.389,3.42c-0.352,1.204 -1.006,2.15 -1.96,2.835c-0.955,0.686 -2.099,1.029 -3.433,1.029Zm-0,-1.724c0.889,0 1.649,-0.245 2.279,-0.736c0.63,-0.491 1.057,-1.154 1.279,-1.988c0.167,-0.667 0.25,-1.603 0.25,-2.808c0,-1.223 -0.074,-2.159 -0.222,-2.808c-0.223,-0.834 -0.653,-1.496 -1.293,-1.987c-0.639,-0.491 -1.413,-0.737 -2.321,-0.737c-0.908,0 -1.677,0.246 -2.308,0.737c-0.63,0.491 -1.056,1.153 -1.278,1.987c-0.149,0.649 -0.223,1.585 -0.223,2.808c0,1.223 0.074,2.159 0.223,2.808c0.204,0.834 0.625,1.497 1.265,1.988c0.639,0.491 1.422,0.736 2.349,0.736Zm2.224,-15.206c-0.464,-0 -0.839,-0.148 -1.126,-0.445c-0.288,-0.297 -0.431,-0.667 -0.431,-1.112c-0,-0.463 0.143,-0.839 0.431,-1.126c0.287,-0.287 0.662,-0.431 1.126,-0.431c0.444,0 0.815,0.144 1.112,0.431c0.296,0.287 0.444,0.663 0.444,1.126c0,0.445 -0.148,0.815 -0.444,1.112c-0.297,0.297 -0.668,0.445 -1.112,0.445Zm-4.754,-0c-0.463,-0 -0.839,-0.148 -1.126,-0.445c-0.287,-0.297 -0.431,-0.667 -0.431,-1.112c0,-0.463 0.144,-0.839 0.431,-1.126c0.287,-0.287 0.663,-0.431 1.126,-0.431c0.445,0 0.815,0.144 1.112,0.431c0.296,0.287 0.445,0.663 0.445,1.126c-0,0.445 -0.149,0.815 -0.445,1.112c-0.297,0.297 -0.667,0.445 -1.112,0.445Z" style="fill:#fff;fill-rule:nonzero;"/><path d="M100.746,109.126c0.612,-0 1.14,0.12 1.585,0.361c0.148,0.074 0.204,0.195 0.167,0.362l-0.306,1.362c-0.056,0.185 -0.176,0.241 -0.362,0.167c-0.315,-0.13 -0.676,-0.195 -1.084,-0.195l-0.361,0.028c-0.964,0.037 -1.761,0.394 -2.391,1.07c-0.63,0.677 -0.945,1.534 -0.945,2.572l-0,8.201c-0,0.185 -0.093,0.278 -0.278,0.278l-1.418,-0c-0.185,-0 -0.278,-0.093 -0.278,-0.278l0,-13.511c0,-0.186 0.093,-0.278 0.278,-0.278l1.418,-0c0.185,-0 0.278,0.092 0.278,0.278l-0,1.696c-0,0.055 0.014,0.088 0.042,0.097c0.027,0.009 0.051,-0.005 0.069,-0.042c0.389,-0.686 0.885,-1.218 1.487,-1.598c0.603,-0.38 1.302,-0.57 2.099,-0.57Z" style="fill:#fff;fill-rule:nonzero;"/><path d="M111.032,109.07c1.483,0 2.664,0.436 3.545,1.307c0.88,0.871 1.32,2.038 1.32,3.503l0,9.174c0,0.185 -0.092,0.278 -0.278,0.278l-1.418,-0c-0.185,-0 -0.278,-0.093 -0.278,-0.278l0,-8.785c0,-1.02 -0.31,-1.854 -0.931,-2.502c-0.621,-0.649 -1.422,-0.973 -2.405,-0.973c-1.019,-0 -1.844,0.315 -2.474,0.945c-0.63,0.63 -0.945,1.455 -0.945,2.474l0,8.841c0,0.185 -0.093,0.278 -0.278,0.278l-1.418,-0c-0.185,-0 -0.278,-0.093 -0.278,-0.278l0,-13.511c0,-0.186 0.093,-0.278 0.278,-0.278l1.418,-0c0.185,-0 0.278,0.092 0.278,0.278l0,1.195c0,0.037 0.014,0.065 0.042,0.084c0.028,0.018 0.051,0.009 0.069,-0.028c0.816,-1.149 2.067,-1.724 3.753,-1.724Z" style="fill:#fff;fill-rule:nonzero;"/><path d="M53.45,136.961c-0.094,0.056 -0.094,0.112 -0,0.168c1.008,0.411 1.773,1.017 2.296,1.82c0.522,0.803 0.784,1.773 0.784,2.912c-0,1.68 -0.537,2.987 -1.61,3.92c-1.074,0.933 -2.488,1.4 -4.242,1.4l-6.776,-0c-0.187,-0 -0.28,-0.093 -0.28,-0.28l-0,-19.04c-0,-0.187 0.093,-0.28 0.28,-0.28l6.58,-0c1.81,-0 3.234,0.448 4.27,1.344c1.036,0.896 1.554,2.156 1.554,3.78c-0,1.027 -0.248,1.899 -0.742,2.618c-0.495,0.719 -1.2,1.265 -2.114,1.638Zm-7.728,-7.644c-0.075,-0 -0.112,0.037 -0.112,0.112l-0,6.72c-0,0.075 0.037,0.112 0.112,0.112l4.76,-0c1.176,-0 2.114,-0.308 2.814,-0.924c0.7,-0.616 1.05,-1.437 1.05,-2.464c-0,-1.083 -0.35,-1.946 -1.05,-2.59c-0.7,-0.644 -1.638,-0.966 -2.814,-0.966l-4.76,-0Zm4.956,16.1c1.176,-0 2.114,-0.336 2.814,-1.008c0.7,-0.672 1.05,-1.577 1.05,-2.716c-0,-1.139 -0.36,-2.049 -1.078,-2.73c-0.719,-0.681 -1.685,-1.022 -2.898,-1.022l-4.844,-0c-0.075,-0 -0.112,0.037 -0.112,0.112l-0,7.252c-0,0.075 0.037,0.112 0.112,0.112l4.956,-0Z" style="fill:#fff;fill-rule:nonzero;"/><path d="M66.498,132.873c0.616,-0 1.148,0.121 1.596,0.364c0.149,0.075 0.205,0.196 0.168,0.364l-0.308,1.372c-0.056,0.187 -0.178,0.243 -0.364,0.168c-0.318,-0.131 -0.682,-0.196 -1.092,-0.196l-0.364,0.028c-0.971,0.037 -1.774,0.397 -2.408,1.078c-0.635,0.681 -0.952,1.545 -0.952,2.59l-0,8.26c-0,0.187 -0.094,0.28 -0.28,0.28l-1.428,-0c-0.187,-0 -0.28,-0.093 -0.28,-0.28l-0,-13.608c-0,-0.187 0.093,-0.28 0.28,-0.28l1.428,-0c0.186,-0 0.28,0.093 0.28,0.28l-0,1.708c-0,0.056 0.014,0.089 0.042,0.098c0.028,0.009 0.051,-0.005 0.07,-0.042c0.392,-0.691 0.891,-1.227 1.498,-1.61c0.606,-0.383 1.311,-0.574 2.114,-0.574Z" style="fill:#fff;fill-rule:nonzero;"/><path d="M81.702,137.717c0.074,0.523 0.112,1.176 0.112,1.96l-0,0.896c-0,0.187 -0.094,0.28 -0.28,0.28l-9.044,-0c-0.075,-0 -0.112,0.037 -0.112,0.112c0.037,1.027 0.093,1.689 0.168,1.988c0.205,0.84 0.644,1.503 1.316,1.988c0.672,0.485 1.53,0.728 2.576,0.728c0.784,-0 1.474,-0.177 2.072,-0.532c0.597,-0.355 1.064,-0.859 1.4,-1.512c0.112,-0.168 0.242,-0.205 0.392,-0.112l1.092,0.644c0.149,0.093 0.186,0.224 0.112,0.392c-0.467,0.896 -1.167,1.601 -2.1,2.114c-0.934,0.513 -2.007,0.77 -3.22,0.77c-1.326,-0.019 -2.436,-0.336 -3.332,-0.952c-0.896,-0.616 -1.54,-1.475 -1.932,-2.576c-0.336,-0.896 -0.504,-2.184 -0.504,-3.864c-0,-0.784 0.014,-1.423 0.042,-1.918c0.028,-0.495 0.098,-0.938 0.21,-1.33c0.317,-1.213 0.956,-2.184 1.918,-2.912c0.961,-0.728 2.123,-1.092 3.486,-1.092c1.698,-0 3.005,0.429 3.92,1.288c0.914,0.859 1.484,2.072 1.708,3.64Zm-5.628,-3.192c-0.915,-0 -1.676,0.238 -2.282,0.714c-0.607,0.476 -1.004,1.115 -1.19,1.918c-0.112,0.392 -0.187,1.027 -0.224,1.904c-0,0.075 0.037,0.112 0.112,0.112l7.252,-0c0.074,-0 0.112,-0.037 0.112,-0.112c-0.038,-0.84 -0.094,-1.437 -0.168,-1.792c-0.206,-0.84 -0.621,-1.507 -1.246,-2.002c-0.626,-0.495 -1.414,-0.742 -2.366,-0.742Z" style="fill:#fff;fill-rule:nonzero;"/><path d="M86.042,147.181c-0.187,-0 -0.28,-0.093 -0.28,-0.28l-0,-14c0.018,-1.736 0.532,-3.099 1.54,-4.088c1.008,-0.989 2.389,-1.484 4.144,-1.484c1.717,-0 3.094,0.471 4.13,1.414c1.036,0.943 1.554,2.217 1.554,3.822c-0,0.989 -0.21,1.834 -0.63,2.534c-0.42,0.7 -1.032,1.227 -1.834,1.582c-0.038,0.019 -0.056,0.037 -0.056,0.056c-0,0.019 0.018,0.037 0.056,0.056c0.84,0.355 1.498,0.961 1.974,1.82c0.476,0.859 0.714,1.876 0.714,3.052c-0,1.736 -0.537,3.089 -1.61,4.06c-1.074,0.971 -2.59,1.456 -4.55,1.456l-1.736,-0c-0.187,-0 -0.28,-0.093 -0.28,-0.28l-0,-1.148c-0,-0.187 0.093,-0.28 0.28,-0.28l1.904,-0c1.25,-0 2.23,-0.345 2.94,-1.036c0.709,-0.691 1.064,-1.671 1.064,-2.94c-0,-1.232 -0.322,-2.193 -0.966,-2.884c-0.644,-0.691 -1.526,-1.045 -2.646,-1.064l-1.652,-0c-0.187,-0 -0.28,-0.093 -0.28,-0.28l-0,-1.036c-0,-0.187 0.093,-0.28 0.28,-0.28l1.624,-0c1.082,-0 1.922,-0.289 2.52,-0.868c0.597,-0.579 0.896,-1.381 0.896,-2.408c-0,-1.12 -0.318,-2.002 -0.952,-2.646c-0.635,-0.644 -1.531,-0.966 -2.688,-0.966c-1.102,-0 -1.998,0.327 -2.688,0.98c-0.691,0.653 -1.046,1.559 -1.064,2.716l-0,14.14c-0,0.187 -0.094,0.28 -0.28,0.28l-1.428,-0Z" style="fill:#fff;fill-rule:nonzero;"/><path d="M101.638,147.181c-0.187,-0 -0.28,-0.093 -0.28,-0.28l-0,-19.04c-0,-0.187 0.093,-0.28 0.28,-0.28l1.428,-0c0.186,-0 0.28,0.093 0.28,0.28l-0,19.04c-0,0.187 -0.094,0.28 -0.28,0.28l-1.428,-0Z" style="fill:#fff;fill-rule:nonzero;"/><path d="M118.662,137.717c0.074,0.523 0.112,1.176 0.112,1.96l-0,0.896c-0,0.187 -0.094,0.28 -0.28,0.28l-9.044,-0c-0.075,-0 -0.112,0.037 -0.112,0.112c0.037,1.027 0.093,1.689 0.168,1.988c0.205,0.84 0.644,1.503 1.316,1.988c0.672,0.485 1.53,0.728 2.576,0.728c0.784,-0 1.474,-0.177 2.072,-0.532c0.597,-0.355 1.064,-0.859 1.4,-1.512c0.112,-0.168 0.242,-0.205 0.392,-0.112l1.092,0.644c0.149,0.093 0.186,0.224 0.112,0.392c-0.467,0.896 -1.167,1.601 -2.1,2.114c-0.934,0.513 -2.007,0.77 -3.22,0.77c-1.326,-0.019 -2.436,-0.336 -3.332,-0.952c-0.896,-0.616 -1.54,-1.475 -1.932,-2.576c-0.336,-0.896 -0.504,-2.184 -0.504,-3.864c-0,-0.784 0.014,-1.423 0.042,-1.918c0.028,-0.495 0.098,-0.938 0.21,-1.33c0.317,-1.213 0.956,-2.184 1.918,-2.912c0.961,-0.728 2.123,-1.092 3.486,-1.092c1.698,-0 3.005,0.429 3.92,1.288c0.914,0.859 1.484,2.072 1.708,3.64Zm-5.628,-3.192c-0.915,-0 -1.676,0.238 -2.282,0.714c-0.607,0.476 -1.004,1.115 -1.19,1.918c-0.112,0.392 -0.187,1.027 -0.224,1.904c-0,0.075 0.037,0.112 0.112,0.112l7.252,-0c0.074,-0 0.112,-0.037 0.112,-0.112c-0.038,-0.84 -0.094,-1.437 -0.168,-1.792c-0.206,-0.84 -0.621,-1.507 -1.246,-2.002c-0.626,-0.495 -1.414,-0.742 -2.366,-0.742Z" style="fill:#fff;fill-rule:nonzero;"/><path d="M128.434,132.873c0.616,-0 1.148,0.121 1.596,0.364c0.149,0.075 0.205,0.196 0.168,0.364l-0.308,1.372c-0.056,0.187 -0.178,0.243 -0.364,0.168c-0.318,-0.131 -0.682,-0.196 -1.092,-0.196l-0.364,0.028c-0.971,0.037 -1.774,0.397 -2.408,1.078c-0.635,0.681 -0.952,1.545 -0.952,2.59l-0,8.26c-0,0.187 -0.094,0.28 -0.28,0.28l-1.428,-0c-0.187,-0 -0.28,-0.093 -0.28,-0.28l-0,-13.608c-0,-0.187 0.093,-0.28 0.28,-0.28l1.428,-0c0.186,-0 0.28,0.093 0.28,0.28l-0,1.708c-0,0.056 0.014,0.089 0.042,0.098c0.028,0.009 0.051,-0.005 0.07,-0.042c0.392,-0.691 0.891,-1.227 1.498,-1.61c0.606,-0.383 1.311,-0.574 2.114,-0.574Z" style="fill:#fff;fill-rule:nonzero;"/><path d="M72.271,64.774c-0.352,0 -0.638,0.286 -0.638,0.638l0,2.657c0,3.994 -3.242,7.236 -7.236,7.236c-3.993,-0 -7.235,-3.242 -7.235,-7.236c-0,-3.993 3.242,-7.235 7.235,-7.235l2.658,-0c0.352,-0 0.637,-0.286 0.637,-0.638l0,-5.08c0,-0.353 -0.285,-0.638 -0.637,-0.638l-2.658,-0c-3.993,-0 -7.235,-3.242 -7.235,-7.236c-0,-3.993 3.242,-7.235 7.235,-7.235c3.994,-0 7.236,3.242 7.236,7.235l0,2.657c0,0.353 0.286,0.638 0.638,0.638l26.595,0c0.169,0 0.331,-0.067 0.451,-0.187l3.854,-3.854c0.16,-0.16 0.223,-0.393 0.166,-0.612c-0.096,-0.37 -0.148,-0.759 -0.148,-1.159c0,-2.527 2.052,-4.578 4.579,-4.578c2.527,-0 4.578,2.051 4.578,4.578c0,2.527 -2.051,4.579 -4.578,4.579c-0.42,-0 -0.827,-0.057 -1.213,-0.163c-0.222,-0.06 -0.458,0.002 -0.62,0.164l-4.596,4.596c-0.424,0.424 -0.931,0.577 -1.553,0.577l-27.515,-0c-0.352,-0 -0.638,0.285 -0.638,0.638l0,5.08c0,0.352 0.286,0.638 0.638,0.638l27.515,-0c0.618,-0 1.129,0.152 1.553,0.577l4.596,4.595c0.162,0.162 0.398,0.225 0.62,0.164c0.386,-0.106 0.793,-0.162 1.213,-0.162c2.527,-0 4.578,2.051 4.578,4.578c0,2.527 -2.051,4.579 -4.578,4.579c-2.527,-0 -4.579,-2.052 -4.579,-4.579c0,-0.4 0.052,-0.788 0.148,-1.158c0.057,-0.219 -0.006,-0.452 -0.166,-0.612l-3.854,-3.855c-0.12,-0.119 -0.282,-0.187 -0.451,-0.187l-26.595,0Zm-4.579,-17.532c0,-1.818 -1.476,-3.295 -3.295,-3.295c-1.818,0 -3.294,1.477 -3.294,3.295c-0,1.819 1.476,3.295 3.294,3.295l2.658,0c0.352,0 0.637,-0.285 0.637,-0.638l0,-2.657Zm0,20.827l0,-2.657c0,-0.352 -0.285,-0.638 -0.637,-0.638l-2.658,0c-1.818,0 -3.294,1.477 -3.294,3.295c-0,1.819 1.476,3.295 3.294,3.295c1.819,0 3.295,-1.476 3.295,-3.295Z" style="fill:#fff;"/><path d="M82.359,71.073l-0.031,19.831c-2.988,-0 -15.757,-0.003 -22.553,-0.003c-10.445,0 -18.144,-9.132 -18.144,-20.378c0,-4.647 1.563,-9.05 4.192,-12.479l0.298,-0.388l-0.298,-0.388c-2.629,-3.429 -4.192,-7.746 -4.192,-12.444c0,-10.867 7.277,-20.414 18.144,-20.414c0.108,0 18.837,-0.002 22.553,-0.003l0.031,19.831l-5.368,0c-1.356,-5.698 -6.483,-9.941 -12.594,-9.941c-7.099,0 -12.871,5.727 -12.944,12.81l0,0.006c0.045,4.377 2.261,8.232 5.619,10.543c-3.358,2.31 -5.574,6.165 -5.619,10.536l0,0.006c0.073,7.089 5.845,12.816 12.944,12.816c6.111,0 11.238,-4.243 12.594,-9.941l5.368,0Z" style="fill:#fff;"/><path d="M88.86,44.238l0.03,-19.831c3.717,0.001 22.445,0.003 22.554,0.003c10.535,0 18.143,9.106 18.143,20.414c0,4.672 -1.562,9.015 -4.192,12.444l-0.298,0.388l0.298,0.388c2.63,3.429 4.192,7.793 4.192,12.443c0,11.341 -7.6,20.414 -18.143,20.414c-1.042,0 -18.931,0.003 -22.554,0.003l-0.03,-19.831l7.676,0l0.177,0.191c0.144,4.938 4.49,10.393 11.055,10.393c6.11,-0 11.07,-4.961 11.07,-11.071c-0,-5.809 -4.484,-10.578 -10.177,-11.034c0,-0 -1.888,-1.896 -1.888,-1.896l1.888,-1.896c5.693,-0.456 10.177,-5.226 10.177,-11.035c-0,-6.11 -4.96,-11.07 -11.07,-11.07c-5.783,-0 -10.648,4.455 -11.045,10.381c-0,-0 -0.187,0.202 -0.187,0.202l-7.676,0Z" style="fill:#fff;"/></g></svg>