<?xml version="1.0" encoding="UTF-8" standalone="no"?><!DOCTYPE svg PUBLIC "-//W3C//DTD SVG 1.1//EN" "http://www.w3.org/Graphics/SVG/1.1/DTD/svg11.dtd"><svg width="100%" height="100%" viewBox="0 0 172 172" version="1.1" xmlns="http://www.w3.org/2000/svg" xmlns:xlink="http://www.w3.org/1999/xlink" xml:space="preserve" xmlns:serif="http://www.serif.com/" style="fill-rule:evenodd;clip-rule:evenodd;stroke-linejoin:round;stroke-miterlimit:2;"><rect id="Artboard" x="-713.52" y="-1340.88" width="1766.88" height="1582.8" style="fill:none;"/><g id="kleines-B-im-großen-B" serif:id="kleines B im großen B"></g><g><rect x="-0" y="0" width="171.84" height="171.84" style="fill:none;"/></g><g><path d="M66.323,113.218c-0.093,0.055 -0.093,0.111 -0,0.166c1.962,0.833 2.944,2.379 2.944,4.638c-0,1.703 -0.565,3.018 -1.694,3.943c-1.13,0.926 -2.602,1.389 -4.416,1.389l-6.915,-0c-0.185,-0 -0.277,-0.093 -0.277,-0.278l-0,-18.884c-0,-0.185 0.092,-0.278 0.277,-0.278l6.693,0c1.925,0 3.42,0.44 4.485,1.319c1.064,0.88 1.597,2.162 1.597,3.847c-0,1.999 -0.898,3.378 -2.694,4.138Zm-7.581,-6.999c-0.074,0 -0.111,0.037 -0.111,0.111l-0,5.86c-0,0.074 0.037,0.111 0.111,0.111l4.193,0c1.074,0 1.921,-0.268 2.541,-0.805c0.62,-0.537 0.93,-1.268 0.93,-2.194c0,-0.944 -0.31,-1.694 -0.93,-2.25c-0.62,-0.555 -1.467,-0.833 -2.541,-0.833l-4.193,0Zm4.415,14.802c1.055,0 1.893,-0.292 2.513,-0.875c0.621,-0.583 0.931,-1.374 0.931,-2.374c-0,-1 -0.315,-1.791 -0.945,-2.374c-0.629,-0.584 -1.49,-0.875 -2.582,-0.875l-4.332,-0c-0.074,-0 -0.111,0.037 -0.111,0.111l-0,6.276c-0,0.074 0.037,0.111 0.111,0.111l4.415,0Z" style="fill:#fff;fill-rule:nonzero;"/><path d="M74.376,106.997c-0.518,-0 -0.944,-0.167 -1.277,-0.5c-0.333,-0.333 -0.5,-0.759 -0.5,-1.277c0,-0.519 0.167,-0.945 0.5,-1.278c0.333,-0.333 0.759,-0.5 1.277,-0.5c0.537,0 0.968,0.162 1.292,0.486c0.324,0.324 0.486,0.755 0.486,1.292c-0,0.518 -0.167,0.944 -0.5,1.277c-0.333,0.333 -0.759,0.5 -1.278,0.5Zm-4.304,22.105c-0.185,0 -0.278,-0.092 -0.278,-0.277l0,-1.722c0,-0.185 0.093,-0.278 0.278,-0.278c1.055,0 1.819,-0.213 2.291,-0.639c0.472,-0.425 0.708,-1.101 0.708,-2.027l-0.028,-14.663c0,-0.185 0.093,-0.277 0.278,-0.277l2.111,-0c0.185,-0 0.277,0.092 0.277,0.277l0,14.635c0,1.222 -0.185,2.194 -0.555,2.916c-0.37,0.722 -0.963,1.25 -1.777,1.583c-0.815,0.333 -1.916,0.491 -3.305,0.472Z" style="fill:#fff;fill-rule:nonzero;"/><path d="M85.624,123.576c-1.37,-0 -2.565,-0.347 -3.583,-1.041c-1.018,-0.695 -1.731,-1.662 -2.138,-2.902c-0.333,-1 -0.5,-2.13 -0.5,-3.388c-0,-1.315 0.157,-2.426 0.472,-3.333c0.407,-1.222 1.12,-2.18 2.138,-2.874c1.019,-0.694 2.231,-1.042 3.638,-1.042c1.333,0 2.495,0.348 3.486,1.042c0.99,0.694 1.698,1.643 2.124,2.846c0.333,0.944 0.5,2.055 0.5,3.333c-0,1.296 -0.167,2.434 -0.5,3.416c-0.407,1.24 -1.111,2.207 -2.111,2.902c-0.999,0.694 -2.175,1.041 -3.526,1.041Zm-0,-2.305c0.74,-0 1.388,-0.208 1.943,-0.625c0.556,-0.416 0.954,-1.004 1.195,-1.763c0.203,-0.704 0.305,-1.574 0.305,-2.611c0,-1.036 -0.092,-1.897 -0.278,-2.582c-0.24,-0.759 -0.638,-1.347 -1.194,-1.764c-0.555,-0.416 -1.231,-0.625 -2.027,-0.625c-0.759,0 -1.416,0.209 -1.972,0.625c-0.555,0.417 -0.953,1.005 -1.194,1.764c-0.204,0.648 -0.305,1.508 -0.305,2.582c-0,1.074 0.101,1.944 0.305,2.611c0.222,0.759 0.616,1.347 1.18,1.763c0.565,0.417 1.245,0.625 2.042,0.625Zm2.304,-14.385c-0.518,-0 -0.944,-0.167 -1.277,-0.5c-0.333,-0.333 -0.5,-0.759 -0.5,-1.277c0,-0.519 0.167,-0.945 0.5,-1.278c0.333,-0.333 0.759,-0.5 1.277,-0.5c0.519,0 0.945,0.167 1.278,0.5c0.333,0.333 0.5,0.759 0.5,1.278c-0,0.518 -0.167,0.944 -0.5,1.277c-0.333,0.333 -0.759,0.5 -1.278,0.5Zm-5.054,-0c-0.518,-0 -0.944,-0.167 -1.277,-0.5c-0.333,-0.333 -0.5,-0.759 -0.5,-1.277c-0,-0.519 0.167,-0.945 0.5,-1.278c0.333,-0.333 0.759,-0.5 1.277,-0.5c0.519,0 0.944,0.167 1.278,0.5c0.333,0.333 0.5,0.759 0.5,1.278c-0,0.518 -0.167,0.944 -0.5,1.277c-0.334,0.333 -0.759,0.5 -1.278,0.5Z" style="fill:#fff;fill-rule:nonzero;"/><path d="M101.064,109.08c0.592,-0 1.129,0.12 1.611,0.361c0.129,0.055 0.176,0.166 0.139,0.333l-0.445,2.083c-0.018,0.166 -0.129,0.222 -0.333,0.166c-0.315,-0.129 -0.685,-0.194 -1.111,-0.194l-0.389,0.028c-0.87,0.037 -1.587,0.338 -2.152,0.902c-0.565,0.565 -0.847,1.301 -0.847,2.208l0,8.109c0,0.185 -0.092,0.278 -0.278,0.278l-2.11,-0c-0.185,-0 -0.278,-0.093 -0.278,-0.278l0,-13.58c0,-0.185 0.093,-0.277 0.278,-0.277l2.11,-0c0.186,-0 0.278,0.092 0.278,0.277l0,1.472c0,0.056 0.014,0.088 0.042,0.097c0.028,0.01 0.051,-0.004 0.069,-0.041c0.833,-1.296 1.972,-1.944 3.416,-1.944Z" style="fill:#fff;fill-rule:nonzero;"/><path d="M111.478,109.024c1.518,0 2.721,0.44 3.61,1.319c0.889,0.88 1.333,2.069 1.333,3.569l0,9.164c0,0.185 -0.092,0.278 -0.278,0.278l-2.11,-0c-0.185,-0 -0.278,-0.093 -0.278,-0.278l0,-8.637c0,-0.925 -0.268,-1.675 -0.805,-2.249c-0.537,-0.574 -1.25,-0.861 -2.139,-0.861c-0.87,0 -1.582,0.287 -2.138,0.861c-0.555,0.574 -0.833,1.314 -0.833,2.222l-0,8.664c-0,0.185 -0.093,0.278 -0.278,0.278l-2.11,-0c-0.185,-0 -0.278,-0.093 -0.278,-0.278l0,-13.58c0,-0.185 0.093,-0.277 0.278,-0.277l2.11,-0c0.185,-0 0.278,0.092 0.278,0.277l-0,1c-0,0.037 0.014,0.065 0.042,0.083c0.027,0.019 0.051,0.01 0.069,-0.027c0.796,-1.019 1.972,-1.528 3.527,-1.528Z" style="fill:#fff;fill-rule:nonzero;"/><path d="M53.798,136.795c-0.092,0.055 -0.092,0.111 0,0.166c1.963,0.833 2.944,2.379 2.944,4.638c0,1.703 -0.565,3.018 -1.694,3.943c-1.129,0.926 -2.601,1.389 -4.415,1.389l-6.915,0c-0.185,0 -0.278,-0.093 -0.278,-0.278l0,-18.884c0,-0.185 0.093,-0.277 0.278,-0.277l6.692,-0c1.926,-0 3.421,0.439 4.485,1.319c1.065,0.879 1.597,2.161 1.597,3.846c0,1.999 -0.898,3.379 -2.694,4.138Zm-7.581,-6.998c-0.074,-0 -0.111,0.037 -0.111,0.111l-0,5.859c-0,0.074 0.037,0.111 0.111,0.111l4.193,0c1.074,0 1.921,-0.268 2.541,-0.805c0.621,-0.537 0.931,-1.268 0.931,-2.194c-0,-0.944 -0.31,-1.694 -0.931,-2.249c-0.62,-0.556 -1.467,-0.833 -2.541,-0.833l-4.193,-0Zm4.416,14.801c1.055,0 1.893,-0.291 2.513,-0.874c0.62,-0.584 0.93,-1.375 0.93,-2.375c0,-1 -0.315,-1.791 -0.944,-2.374c-0.63,-0.583 -1.49,-0.875 -2.583,-0.875l-4.332,-0c-0.074,-0 -0.111,0.037 -0.111,0.111l-0,6.276c-0,0.074 0.037,0.111 0.111,0.111l4.416,0Z" style="fill:#fff;fill-rule:nonzero;"/><path d="M66.628,132.657c0.593,-0 1.13,0.12 1.611,0.361c0.13,0.055 0.176,0.167 0.139,0.333l-0.444,2.083c-0.019,0.167 -0.13,0.222 -0.334,0.167c-0.314,-0.13 -0.685,-0.195 -1.11,-0.195l-0.389,0.028c-0.87,0.037 -1.588,0.338 -2.152,0.903c-0.565,0.564 -0.847,1.3 -0.847,2.207l-0,8.109c-0,0.185 -0.093,0.278 -0.278,0.278l-2.111,0c-0.185,0 -0.277,-0.093 -0.277,-0.278l-0,-13.58c-0,-0.185 0.092,-0.277 0.277,-0.277l2.111,-0c0.185,-0 0.278,0.092 0.278,0.277l-0,1.472c-0,0.056 0.013,0.088 0.041,0.098c0.028,0.009 0.051,-0.005 0.07,-0.042c0.833,-1.296 1.971,-1.944 3.415,-1.944Z" style="fill:#fff;fill-rule:nonzero;"/><path d="M81.958,138.1c0.074,0.759 0.102,1.611 0.083,2.555c0,0.185 -0.092,0.278 -0.278,0.278l-8.858,-0c-0.074,-0 -0.111,0.037 -0.111,0.111c-0,0.629 0.055,1.11 0.166,1.444c0.204,0.74 0.616,1.319 1.236,1.735c0.62,0.417 1.402,0.625 2.347,0.625c1.37,0 2.425,-0.564 3.165,-1.694c0.093,-0.185 0.213,-0.213 0.361,-0.083l1.583,1.055c0.13,0.111 0.158,0.232 0.084,0.361c-0.519,0.833 -1.255,1.491 -2.208,1.972c-0.954,0.481 -2.032,0.722 -3.235,0.722c-1.352,-0 -2.49,-0.296 -3.416,-0.889c-0.926,-0.592 -1.62,-1.435 -2.083,-2.527c-0.444,-1.092 -0.666,-2.416 -0.666,-3.971c-0,-1.352 0.101,-2.379 0.305,-3.083c0.333,-1.277 1,-2.286 1.999,-3.027c1,-0.74 2.213,-1.11 3.638,-1.11c1.87,-0 3.268,0.467 4.194,1.402c0.925,0.935 1.49,2.31 1.694,4.124Zm-5.888,-3.221c-0.796,-0 -1.453,0.199 -1.971,0.597c-0.519,0.398 -0.87,0.93 -1.056,1.596c-0.129,0.408 -0.212,0.926 -0.249,1.556c-0,0.074 0.037,0.111 0.111,0.111l6.359,-0c0.074,-0 0.111,-0.037 0.111,-0.111c-0.037,-0.611 -0.092,-1.065 -0.166,-1.361c-0.186,-0.722 -0.551,-1.301 -1.097,-1.736c-0.547,-0.435 -1.227,-0.652 -2.042,-0.652Z" style="fill:#fff;fill-rule:nonzero;"/><path d="M85.707,146.931c-0.185,0 -0.278,-0.093 -0.278,-0.278l0,-13.635c0,-1.796 0.523,-3.208 1.569,-4.235c1.046,-1.028 2.495,-1.541 4.346,-1.541c1.796,-0 3.245,0.481 4.346,1.444c1.102,0.962 1.653,2.249 1.653,3.86c-0,0.926 -0.195,1.717 -0.583,2.374c-0.389,0.657 -0.954,1.162 -1.694,1.514c-0.093,0.037 -0.093,0.083 -0,0.139c0.777,0.37 1.393,0.981 1.846,1.832c0.454,0.852 0.681,1.843 0.681,2.972c-0,1.759 -0.565,3.124 -1.694,4.096c-1.13,0.972 -2.722,1.458 -4.777,1.458l-1.444,0c-0.185,0 -0.278,-0.093 -0.278,-0.278l0,-1.721c0,-0.186 0.093,-0.278 0.278,-0.278l1.694,-0c1.092,-0 1.958,-0.31 2.597,-0.93c0.638,-0.621 0.958,-1.495 0.958,-2.625c-0,-1.074 -0.297,-1.921 -0.889,-2.541c-0.592,-0.62 -1.379,-0.939 -2.36,-0.958l-1.472,0c-0.185,0 -0.278,-0.092 -0.278,-0.278l-0,-1.555c-0,-0.185 0.093,-0.277 0.278,-0.277l1.472,-0c0.925,-0 1.656,-0.264 2.193,-0.792c0.537,-0.528 0.806,-1.236 0.806,-2.124c-0,-0.908 -0.278,-1.639 -0.833,-2.194c-0.556,-0.556 -1.343,-0.833 -2.361,-0.833c-1,-0 -1.814,0.287 -2.444,0.861c-0.629,0.573 -0.944,1.37 -0.944,2.388l0,13.857c0,0.185 -0.092,0.278 -0.278,0.278l-2.11,0Z" style="fill:#fff;fill-rule:nonzero;"/><path d="M101.314,146.931c-0.185,0 -0.278,-0.093 -0.278,-0.278l0,-18.884c0,-0.185 0.093,-0.277 0.278,-0.277l2.11,-0c0.186,-0 0.278,0.092 0.278,0.277l0,18.884c0,0.185 -0.092,0.278 -0.278,0.278l-2.11,0Z" style="fill:#fff;fill-rule:nonzero;"/><path d="M119.004,138.1c0.074,0.759 0.102,1.611 0.083,2.555c0,0.185 -0.092,0.278 -0.278,0.278l-8.858,-0c-0.074,-0 -0.112,0.037 -0.112,0.111c0,0.629 0.056,1.11 0.167,1.444c0.204,0.74 0.616,1.319 1.236,1.735c0.62,0.417 1.402,0.625 2.347,0.625c1.37,0 2.425,-0.564 3.165,-1.694c0.093,-0.185 0.213,-0.213 0.361,-0.083l1.583,1.055c0.13,0.111 0.158,0.232 0.084,0.361c-0.519,0.833 -1.255,1.491 -2.208,1.972c-0.954,0.481 -2.032,0.722 -3.235,0.722c-1.352,-0 -2.491,-0.296 -3.416,-0.889c-0.926,-0.592 -1.62,-1.435 -2.083,-2.527c-0.444,-1.092 -0.667,-2.416 -0.667,-3.971c0,-1.352 0.102,-2.379 0.306,-3.083c0.333,-1.277 1,-2.286 1.999,-3.027c1,-0.74 2.213,-1.11 3.638,-1.11c1.87,-0 3.268,0.467 4.194,1.402c0.925,0.935 1.49,2.31 1.694,4.124Zm-5.888,-3.221c-0.796,-0 -1.453,0.199 -1.971,0.597c-0.519,0.398 -0.87,0.93 -1.056,1.596c-0.129,0.408 -0.212,0.926 -0.25,1.556c0,0.074 0.038,0.111 0.112,0.111l6.359,-0c0.074,-0 0.111,-0.037 0.111,-0.111c-0.037,-0.611 -0.092,-1.065 -0.167,-1.361c-0.185,-0.722 -0.55,-1.301 -1.096,-1.736c-0.547,-0.435 -1.227,-0.652 -2.042,-0.652Z" style="fill:#fff;fill-rule:nonzero;"/><path d="M128.64,132.657c0.593,-0 1.129,0.12 1.611,0.361c0.129,0.055 0.176,0.167 0.139,0.333l-0.445,2.083c-0.018,0.167 -0.129,0.222 -0.333,0.167c-0.315,-0.13 -0.685,-0.195 -1.111,-0.195l-0.388,0.028c-0.871,0.037 -1.588,0.338 -2.153,0.903c-0.564,0.564 -0.847,1.3 -0.847,2.207l0,8.109c0,0.185 -0.092,0.278 -0.277,0.278l-2.111,0c-0.185,0 -0.278,-0.093 -0.278,-0.278l0,-13.58c0,-0.185 0.093,-0.277 0.278,-0.277l2.111,-0c0.185,-0 0.277,0.092 0.277,0.277l0,1.472c0,0.056 0.014,0.088 0.042,0.098c0.028,0.009 0.051,-0.005 0.069,-0.042c0.833,-1.296 1.972,-1.944 3.416,-1.944Z" style="fill:#fff;fill-rule:nonzero;"/></g><path d="M72.271,64.774c-0.352,0 -0.638,0.286 -0.638,0.638l0,2.657c0,3.994 -3.242,7.236 -7.236,7.236c-3.993,-0 -7.235,-3.242 -7.235,-7.236c-0,-3.993 3.242,-7.235 7.235,-7.235l2.658,-0c0.352,-0 0.637,-0.286 0.637,-0.638l0,-5.08c0,-0.353 -0.285,-0.638 -0.637,-0.638l-2.658,-0c-3.993,-0 -7.235,-3.242 -7.235,-7.236c-0,-3.993 3.242,-7.235 7.235,-7.235c3.994,-0 7.236,3.242 7.236,7.235l0,2.657c0,0.353 0.286,0.638 0.638,0.638l26.595,0c0.169,0 0.331,-0.067 0.451,-0.187l3.854,-3.854c0.16,-0.16 0.223,-0.393 0.166,-0.612c-0.096,-0.37 -0.148,-0.759 -0.148,-1.159c0,-2.527 2.052,-4.578 4.579,-4.578c2.527,-0 4.578,2.051 4.578,4.578c0,2.527 -2.051,4.579 -4.578,4.579c-0.42,-0 -0.827,-0.057 -1.213,-0.163c-0.222,-0.06 -0.458,0.002 -0.62,0.164l-4.596,4.596c-0.424,0.424 -0.931,0.577 -1.553,0.577l-27.515,-0c-0.352,-0 -0.638,0.285 -0.638,0.638l0,5.08c0,0.352 0.286,0.638 0.638,0.638l27.515,-0c0.618,-0 1.129,0.152 1.553,0.577l4.596,4.595c0.162,0.162 0.398,0.225 0.62,0.164c0.386,-0.106 0.793,-0.162 1.213,-0.162c2.527,-0 4.578,2.051 4.578,4.578c0,2.527 -2.051,4.579 -4.578,4.579c-2.527,-0 -4.579,-2.052 -4.579,-4.579c0,-0.4 0.052,-0.788 0.148,-1.158c0.057,-0.219 -0.006,-0.452 -0.166,-0.612l-3.854,-3.855c-0.12,-0.119 -0.282,-0.187 -0.451,-0.187l-26.595,0Zm-4.579,-17.532c0,-1.818 -1.476,-3.295 -3.295,-3.295c-1.818,0 -3.294,1.477 -3.294,3.295c-0,1.819 1.476,3.295 3.294,3.295l2.658,0c0.352,0 0.637,-0.285 0.637,-0.638l0,-2.657Zm0,20.827l0,-2.657c0,-0.352 -0.285,-0.638 -0.637,-0.638l-2.658,0c-1.818,0 -3.294,1.477 -3.294,3.295c-0,1.819 1.476,3.295 3.294,3.295c1.819,0 3.295,-1.476 3.295,-3.295Z" style="fill:#fff;"/><path d="M82.359,71.073l-0.031,19.831c-2.988,-0 -15.757,-0.003 -22.553,-0.003c-10.445,0 -18.144,-9.132 -18.144,-20.378c0,-4.647 1.563,-9.05 4.192,-12.479l0.298,-0.388l-0.298,-0.388c-2.629,-3.429 -4.192,-7.746 -4.192,-12.444c0,-10.867 7.277,-20.414 18.144,-20.414c0.108,0 18.837,-0.002 22.553,-0.003l0.031,19.831l-5.368,0c-1.356,-5.698 -6.483,-9.941 -12.594,-9.941c-7.099,0 -12.871,5.727 -12.944,12.81l0,0.006c0.045,4.377 2.261,8.232 5.619,10.543c-3.358,2.31 -5.574,6.165 -5.619,10.536l0,0.006c0.073,7.089 5.845,12.816 12.944,12.816c6.111,0 11.238,-4.243 12.594,-9.941l5.368,0Z" style="fill:#fff;"/><path d="M88.86,44.238l0.03,-19.831c3.717,0.001 22.445,0.003 22.554,0.003c10.535,0 18.143,9.106 18.143,20.414c0,4.672 -1.562,9.015 -4.192,12.444l-0.298,0.388l0.298,0.388c2.63,3.429 4.192,7.793 4.192,12.443c0,11.341 -7.6,20.414 -18.143,20.414c-1.042,0 -18.931,0.003 -22.554,0.003l-0.03,-19.831l7.676,0l0.177,0.191c0.144,4.938 4.49,10.393 11.055,10.393c6.11,-0 11.07,-4.961 11.07,-11.071c-0,-5.809 -4.484,-10.578 -10.177,-11.034c0,-0 -1.888,-1.896 -1.888,-1.896l1.888,-1.896c5.693,-0.456 10.177,-5.226 10.177,-11.035c-0,-6.11 -4.96,-11.07 -11.07,-11.07c-5.783,-0 -10.648,4.455 -11.045,10.381c-0,-0 -0.187,0.202 -0.187,0.202l-7.676,0Z" style="fill:#fff;"/></svg>